HIERARCHY
ROOT Hips
{
	OFFSET 0.00000 0.00000 0.00000
	CHANNELS 6 Xposition Yposition Zposition Zrotation Yrotation Xrotation 
	JOINT LHipJoint
	{
		OFFSET 0 0 0
		CHANNELS 3 Zrotation Yrotation Xrotation
		JOINT LeftUpLeg
		{
			OFFSET 1.58161 -1.81893 0.78828
			CHANNELS 3 Zrotation Yrotation Xrotation
			JOINT LeftLeg
			{
				OFFSET 2.53374 -6.96141 0.00000
				CHANNELS 3 Zrotation Yrotation Xrotation
				JOINT LeftFoot
				{
					OFFSET 2.63509 -7.23986 0.00000
					CHANNELS 3 Zrotation Yrotation Xrotation
					JOINT LeftToeBase
					{
						OFFSET 0.14115 -0.38781 2.05350
						CHANNELS 3 Zrotation Yrotation Xrotation
						End Site
						{
							OFFSET 0.00000 -0.00000 1.05543
						}
					}
				}
			}
		}
	}
	JOINT RHipJoint
	{
		OFFSET 0 0 0
		CHANNELS 3 Zrotation Yrotation Xrotation
		JOINT RightUpLeg
		{
			OFFSET -1.11138 -1.81893 0.78828
			CHANNELS 3 Zrotation Yrotation Xrotation
			JOINT RightLeg
			{
				OFFSET -2.58392 -7.09926 0.00000
				CHANNELS 3 Zrotation Yrotation Xrotation
				JOINT RightFoot
				{
					OFFSET -2.66423 -7.31992 0.00000
					CHANNELS 3 Zrotation Yrotation Xrotation
					JOINT RightToeBase
					{
						OFFSET -0.18831 -0.51739 2.12114
						CHANNELS 3 Zrotation Yrotation Xrotation
						End Site
						{
							OFFSET -0.00000 -0.00000 1.09845
						}
					}
				}
			}
		}
	}
	JOINT LowerBack
	{
		OFFSET 0 0 0
		CHANNELS 3 Zrotation Yrotation Xrotation
		JOINT Spine
		{
			OFFSET -0.01511 1.97958 -0.08829
			CHANNELS 3 Zrotation Yrotation Xrotation
			JOINT Spine1
			{
				OFFSET 0.08344 1.97334 -0.04330
				CHANNELS 3 Zrotation Yrotation Xrotation
				JOINT Neck
				{
					OFFSET 0 0 0
					CHANNELS 3 Zrotation Yrotation Xrotation
					JOINT Neck1
					{
						OFFSET 0.00559 1.76246 0.31246
						CHANNELS 3 Zrotation Yrotation Xrotation
						JOINT Head
						{
							OFFSET -0.07011 1.80354 -0.30524
							CHANNELS 3 Zrotation Yrotation Xrotation
							End Site
							{
								OFFSET -0.02385 1.83547 -0.13906
							}
						}
					}
				}
				JOINT LeftShoulder
				{
					OFFSET 0 0 0
					CHANNELS 3 Zrotation Yrotation Xrotation
					JOINT LeftArm
					{
						OFFSET 3.20667 1.30156 -0.60240
						CHANNELS 3 Zrotation Yrotation Xrotation
						JOINT LeftForeArm
						{
							OFFSET 4.95663 -0.00000 0.00000
							CHANNELS 3 Zrotation Yrotation Xrotation
							JOINT LeftHand
							{
								OFFSET 3.38177 -0.00000 0.00000
								CHANNELS 3 Zrotation Yrotation Xrotation
								JOINT LeftFingerBase
								{
									OFFSET 0 0 0
									CHANNELS 3 Zrotation Yrotation Xrotation
									JOINT LeftHandIndex1
									{
										OFFSET 0.66291 -0.00000 0.00000
										CHANNELS 3 Zrotation Yrotation Xrotation
										End Site
										{
											OFFSET 0.53445 -0.00000 0.00000
										}
									}
								}
								JOINT LThumb
								{
									OFFSET 0 0 0
									CHANNELS 3 Zrotation Yrotation Xrotation
									End Site
									{
										OFFSET 0.54261 -0.00000 0.54261
									}
								}
							}
						}
					}
				}
				JOINT RightShoulder
				{
					OFFSET 0 0 0
					CHANNELS 3 Zrotation Yrotation Xrotation
					JOINT RightArm
					{
						OFFSET -3.06877 1.34672 -0.60964
						CHANNELS 3 Zrotation Yrotation Xrotation
						JOINT RightForeArm
						{
							OFFSET -5.08365 -0.00000 0.00000
							CHANNELS 3 Zrotation Yrotation Xrotation
							JOINT RightHand
							{
								OFFSET -3.35984 -0.00000 0.00000
								CHANNELS 3 Zrotation Yrotation Xrotation
								JOINT RightFingerBase
								{
									OFFSET 0 0 0
									CHANNELS 3 Zrotation Yrotation Xrotation
									JOINT RightHandIndex1
									{
										OFFSET -0.82076 -0.00000 0.00000
										CHANNELS 3 Zrotation Yrotation Xrotation
										End Site
										{
											OFFSET -0.66172 -0.00000 0.00000
										}
									}
								}
								JOINT RThumb
								{
									OFFSET 0 0 0
									CHANNELS 3 Zrotation Yrotation Xrotation
									End Site
									{
										OFFSET -0.67182 -0.00000 0.67182
									}
								}
							}
						}
					}
				}
			}
		}
	}
}
MOTION
Frames: 6
Frame Time: .0083333
-11.5487 17.9867 6.6141 -111.6650 85.5983 -94.5889 0.0000 0.0000 0.0000 -5.4459 -7.2266 -28.8660 1.7071 8.2273 23.4066 0.1844 -4.2391 -7.7454 0.6927 -5.3207 -14.8256 0.0000 0.0000 0.0000 13.6527 8.0039 -29.2528 -1.8012 -8.4391 24.0560 -0.0879 -3.8471 -8.3218 -0.0019 0.2788 -0.7661 -1.0285 1.7614 4.5047 4.3146 2.4312 4.0603 4.9585 1.2023 1.4309 1.5679 -2.4431 -11.5716 -2.8597 -0.4228 41.8357 -1.4381 0.4095 17.2167 0.0000 0.0000 0.0000 -99.8201 -21.3104 81.6822 20.5087 -31.2503 -5.7929 -0.0000 0.0000 -52.5451 13.7147 58.8071 11.7919 -7.1250 0.0000 -0.0000 13.2024 -2.8500 -167.1187 0.0000 0.0000 0.0000 99.8244 21.6056 46.5091 -17.1323 27.0318 -4.1473 0.0000 -0.0000 -43.7955 -28.3838 -14.1703 7.5351 7.1250 -0.0000 -0.0000 -0.8658 -45.9909 0.0212
-11.5474 17.9883 6.6156 -109.4150 85.5862 -92.3938 0.0000 0.0000 0.0000 -5.3740 -7.1502 -28.7638 1.7094 8.2326 23.4229 0.1917 -4.2256 -7.8825 0.6999 -5.3477 -14.9031 0.0000 0.0000 0.0000 13.7435 8.0434 -29.1870 -1.7958 -8.4270 24.0188 -0.0896 -3.7580 -8.2785 -0.0026 0.3284 -0.9023 -1.0614 1.7844 4.5340 4.3206 2.4613 4.1006 4.9824 1.2162 1.4520 1.5786 -2.4389 -11.5261 -2.9091 -0.4102 41.7687 -1.4593 0.4062 17.1666 -0.0000 -0.0000 0.0000 -99.8463 -21.3406 81.6115 20.4903 -31.2285 -5.7834 -0.0000 0.0000 -52.5585 13.5932 58.7825 11.6835 -7.1250 0.0000 -0.0000 13.2402 -2.8995 -167.0920 -0.0000 -0.0000 0.0000 99.9170 21.6846 46.4197 -17.0387 26.9087 -4.1048 0.0000 -0.0000 -43.5158 -28.6130 -14.1015 7.5708 7.1250 -0.0000 -0.0000 -1.0904 -45.9457 0.0255
-11.5468 17.9913 6.6172 -107.2990 85.5682 -90.3252 0.0000 0.0000 0.0000 -5.2983 -7.0890 -28.6680 1.7125 8.2397 23.4445 0.2006 -4.2158 -8.0495 0.7169 -5.4107 -15.0837 0.0000 0.0000 0.0000 13.8016 8.1736 -29.0902 -1.7883 -8.4105 23.9679 -0.0891 -3.7603 -8.2690 -0.0015 0.2491 -0.6845 -1.0554 1.8012 4.6000 4.3042 2.4843 4.1034 4.9586 1.2285 1.4167 1.5943 -2.4279 -11.4876 -2.9489 -0.3807 41.7666 -1.4750 0.4151 17.1562 -0.0000 -0.0000 0.0000 -99.8029 -21.3110 81.6448 20.5146 -31.2574 -5.7960 -0.0000 0.0000 -52.4532 13.8433 58.8905 11.9138 -7.1250 0.0000 -0.0000 13.1689 -2.7453 -167.1275 -0.0000 -0.0000 0.0000 100.1023 21.7524 46.0412 -16.9142 26.7445 -4.0486 0.0000 -0.0000 -43.2303 -28.7218 -13.9677 7.5347 7.1250 -0.0000 -0.0000 -1.2075 -45.8109 0.0242
-11.5457 17.9921 6.6184 -106.1320 85.5299 -89.1223 0.0000 0.0000 0.0000 -5.2431 -7.0517 -28.6882 1.7130 8.2409 23.4481 0.1997 -4.0621 -8.0122 0.6556 -5.1791 -14.4202 0.0000 0.0000 0.0000 13.8542 8.2669 -29.0779 -1.7784 -8.3884 23.9001 -0.0847 -3.7938 -8.1862 -0.0039 0.4016 -1.1035 -1.0614 1.7925 4.5625 4.3122 2.4719 4.0940 4.9719 1.2218 1.4286 1.5714 -2.3908 -11.5012 -2.9293 -0.3235 41.7925 -1.4530 0.4373 17.1774 0.0000 0.0000 0.0000 -99.7659 -21.2973 81.6780 20.5763 -31.3304 -5.8281 -0.0000 0.0000 -52.4230 14.0519 58.9987 12.1085 -7.1250 0.0000 -0.0000 13.1129 -2.5994 -167.1497 0.0000 0.0000 0.0000 100.1868 21.7747 45.7746 -16.8786 26.6974 -4.0326 0.0000 -0.0000 -43.0796 -28.9239 -13.8430 7.5314 7.1250 -0.0000 -0.0000 -1.4113 -45.6989 0.0243
-11.5449 17.9928 6.6183 -105.5620 85.5158 -88.4854 0.0000 0.0000 0.0000 -5.2225 -7.0667 -28.7386 1.7102 8.2344 23.4283 0.1963 -3.8749 -7.9264 0.6352 -5.0993 -14.1921 0.0000 0.0000 0.0000 13.8657 8.3166 -29.1117 -1.7686 -8.3665 23.8329 -0.0852 -3.7593 -8.1675 -0.0010 0.2059 -0.5657 -1.0504 1.8095 4.4642 4.2982 2.4929 4.0901 4.9536 1.2315 1.4784 1.5732 -2.3915 -11.4957 -2.8759 -0.3520 41.7691 -1.4336 0.4317 17.1616 -0.0000 0.0000 0.0000 -99.8395 -21.3106 81.7537 20.5403 -31.2878 -5.8093 -0.0000 0.0000 -52.5246 13.6439 58.8098 11.7308 -7.1250 0.0000 -0.0000 13.2267 -2.8634 -167.0970 -0.0000 0.0000 0.0000 100.1943 21.8130 45.5249 -16.8556 26.6671 -4.0223 0.0000 -0.0000 -42.9606 -28.8888 -13.7199 7.4558 7.1250 -0.0000 -0.0000 -1.3904 -45.5558 0.0191
-11.5437 17.9945 6.6226 -103.4210 85.6292 -86.2997 0.0000 0.0000 0.0000 -5.3287 -6.9542 -28.7554 1.7073 8.2277 23.4080 0.1979 -3.8247 -7.9520 0.6683 -5.2278 -14.5593 0.0000 0.0000 0.0000 13.7445 8.4965 -29.1119 -1.7633 -8.3545 23.7961 -0.0875 -3.7482 -8.2164 -0.0002 -0.0977 0.2684 -1.2520 1.8572 4.3926 4.2631 2.5475 4.0784 5.0315 1.2534 1.4946 1.6365 -2.3910 -11.4756 -2.9218 -0.3522 41.7624 -1.4658 0.4352 17.1516 -0.0000 -0.0000 0.0000 -99.9455 -21.2823 81.7136 20.4432 -31.1726 -5.7590 -0.0000 0.0000 -52.4083 12.9283 58.5741 11.0827 -7.1250 0.0000 -0.0000 13.4413 -3.2397 -166.9704 -0.0000 -0.0000 0.0000 100.1780 21.8307 45.4071 -16.8048 26.5997 -3.9995 0.0000 -0.0000 -42.8903 -28.7529 -13.6475 7.3765 7.1250 -0.0000 -0.0000 -1.2695 -45.4560 0.0143
